<?xml version="1.0" encoding="UTF-8" standalone="no"?>
<svg
   xmlns:dc="http://purl.org/dc/elements/1.1/"
   xmlns:cc="http://creativecommons.org/ns#"
   xmlns:rdf="http://www.w3.org/1999/02/22-rdf-syntax-ns#"
   xmlns:svg="http://www.w3.org/2000/svg"
   xmlns="http://www.w3.org/2000/svg"
   version="1.1"
   viewBox="0 0 72 72"
   id="emoji">
  <metadata
     id="metadata12">
    <rdf:RDF>
      <cc:Work
         rdf:about="">
        <dc:format>image/svg+xml</dc:format>
        <dc:type
           rdf:resource="http://purl.org/dc/dcmitype/StillImage" />
        <dc:title></dc:title>
      </cc:Work>
    </rdf:RDF>
  </metadata>
  <defs
     id="defs10" />
  <g
     transform="translate(0,-1)"
     id="line">
    <path
       id="path2"
       d="m 58,60 c 0,0 0,-2 -1,-6 -1.2109,-4.8457 -4,-8 -10,-8 -5,0 -15,0 -22,0 -6,0 -8.7891,3.1543 -10,8 -1,4 -1,6 -1,6"
       stroke-width="2"
       stroke-linejoin="round"
       stroke-linecap="round"
       stroke="#000000"
       fill="none" />
    <path
       id="path4"
       d="m 26,26 c 0,3.7246 0.5391,7.8086 2,10 1.8613,2.793 5.0176,4 8,4 3.0957,0 6.1367,-1.207 8,-4 1.46,-2.1914 2,-6.2754 2,-10 0,-2.7935 -1,-12 -10,-12 -9,0 -10,7.3442 -10,12 z"
       stroke-width="2"
       stroke-linejoin="round"
       stroke="#000000"
       fill="none" />
  </g>
</svg>
