<?xml version="1.0" encoding="UTF-8" standalone="no"?>
<svg
   xmlns:dc="http://purl.org/dc/elements/1.1/"
   xmlns:cc="http://creativecommons.org/ns#"
   xmlns:rdf="http://www.w3.org/1999/02/22-rdf-syntax-ns#"
   xmlns:svg="http://www.w3.org/2000/svg"
   xmlns="http://www.w3.org/2000/svg"
   version="1.1"
   viewBox="0 0 72 72"
   id="emoji">
  <metadata
     id="metadata14">
    <rdf:RDF>
      <cc:Work
         rdf:about="">
        <dc:format>image/svg+xml</dc:format>
        <dc:type
           rdf:resource="http://purl.org/dc/dcmitype/StillImage" />
        <dc:title></dc:title>
      </cc:Work>
    </rdf:RDF>
  </metadata>
  <defs
     id="defs12" />
  <g
     transform="translate(0,-2.5)"
     id="line">
    <path
       id="path2"
       d="m 35,60 v -7 c 0,-7 4,-10 8,-10 7,0 7,0 12,0 4,0 8,3 8,10 0,4 0,7 0,7 M 34,45.0977 M 9,60 c 0,0 0,-6 0,-7 0,-7 4,-10 8,-10 7,0 7,0 12,0 1.5313,0 3.0605,0.5313 4.3672,1.5488"
       stroke-width="2"
       stroke-linejoin="round"
       stroke-linecap="round"
       stroke="#000000"
       fill="none" />
    <path
       id="path4"
       d="m 15,26 c 0,4 0.876,6.3145 2,8 1.4316,2.1484 3.7061,3 6,3 2.3809,0 4.5664,-0.8516 6,-3 1.123,-1.6855 2,-4 2,-8 0,-2.1484 -1.0771,-9 -8,-9 -6.9229,0 -8,5.4189 -8,9 z"
       stroke-width="2"
       stroke-linejoin="round"
       stroke="#000000"
       fill="none" />
    <path
       id="path6"
       d="m 41,26 c 0,4 0.876,6.3145 2,8 1.4316,2.1484 3.7061,3 6,3 2.3809,0 4.5664,-0.8516 6,-3 1.123,-1.6855 2,-4 2,-8 0,-2.1484 -1.0771,-9 -8,-9 -6.9229,0 -8,5.4189 -8,9 z"
       stroke-width="2"
       stroke-linejoin="round"
       stroke="#000000"
       fill="none" />
  </g>
</svg>
